<svg width="136" height="30" viewBox="0 0 136 30" fill="none" xmlns="http://www.w3.org/2000/svg">
<path fill-rule="evenodd" clip-rule="evenodd" d="M59.1637 20.5043C62.1639 20.5043 64.5961 18.0721 64.5961 15.0719C64.5961 12.0717 62.1639 9.63948 59.1637 9.63948C56.1635 9.63948 53.7313 12.0717 53.7313 15.0719C53.7313 18.0721 56.1635 20.5043 59.1637 20.5043ZM59.1637 29.7742C67.2835 29.7742 73.866 23.1917 73.866 15.0719C73.866 6.95206 67.2835 0.369629 59.1637 0.369629C51.0439 0.369629 44.4614 6.95206 44.4614 15.0719C44.4614 23.1917 51.0439 29.7742 59.1637 29.7742Z" fill="#C3FD07"/>
<path d="M110.591 0.369629H119.859V29.7742H110.591V0.369629Z" fill="white"/>
<path d="M135.511 7.0127H126.152L119.858 18.4141L126.22 29.7753H135.511L129.126 18.4141L135.511 7.0127Z" fill="white"/>
<path d="M97.2012 12.2786H106.468V29.7752H97.2012V12.2786Z" fill="white"/>
<path d="M106.476 5.03843C106.476 7.61693 104.398 9.70722 101.834 9.70722C99.2706 9.70722 97.1924 7.61693 97.1924 5.03843C97.1924 2.45992 99.2706 0.369629 101.834 0.369629C104.398 0.369629 106.476 2.45992 106.476 5.03843Z" fill="white"/>
<rect x="77.3696" y="6.32776" width="15.7053" height="6.95809" fill="white"/>
<rect x="83.8076" y="0.369629" width="9.26724" height="12.9152" fill="white"/>
<rect x="83.8076" y="15.7572" width="9.26724" height="14.024" fill="white"/>
<path d="M29.7454 29.7758H15.6644L0 0.38005H13.3071L22.701 16.6377L32.0792 0.372192H45.4098L29.7454 29.7758Z" fill="#C3FD07"/>
</svg>
