<svg width="481" height="116" viewBox="0 0 481 116" fill="none" xmlns="http://www.w3.org/2000/svg">
<path d="M50.7748 102.65L15.3685 10.0684L42.8943 10.2785L63.1655 68.0093L84.2273 10.5941L111.842 10.8049L75.0259 102.835L50.7748 102.65Z" fill="#C3FD07"/>
<path fill-rule="evenodd" clip-rule="evenodd" d="M43.902 112.556L0.856796 -7.62939e-06L49.9707 0.374973L63.3706 38.537L77.2932 0.583579L126.506 0.959313L81.7469 112.845L43.902 112.556ZM63.1657 68.0099L42.8945 10.2791L15.3687 10.0689L50.775 102.65L75.026 102.836L111.842 10.8055L84.2275 10.5946L63.1657 68.0099Z" fill="#C3FD07"/>
<path d="M239.434 27.1396L260.396 27.2997L260.587 2.26501L301.841 2.57998L301.65 27.6146L301.841 50.9902L239.252 50.9902L239.434 27.1396ZM260.162 57.9164L301.416 58.2313L300.991 113.883L259.737 113.568L260.162 57.9164Z" fill="white"/>
<path fill-rule="evenodd" clip-rule="evenodd" d="M176.307 77.8403C187.664 77.927 196.94 68.791 197.027 57.4344C197.114 46.0778 187.978 36.8012 176.621 36.7145C165.265 36.6278 155.988 45.7638 155.901 57.1204C155.815 68.477 164.951 77.7536 176.307 77.8403ZM176.039 112.929C206.775 113.163 231.881 88.4377 232.115 57.7023C232.35 26.9669 207.624 1.86072 176.889 1.62606C146.154 1.3914 121.047 26.1171 120.813 56.8525C120.578 87.5879 145.304 112.694 176.039 112.929Z" fill="#C3FD07"/>
<path d="M373.858 3.12988L415.255 3.44594L414.406 114.749L373.008 114.433L373.858 3.12988Z" fill="white"/>
<path d="M478.033 29.0681L438.886 28.7692L414.734 71.7444L440.352 114.947L479.803 115.248L452.516 72.0328L478.033 29.0681Z" fill="white"/>
<path d="M318.507 51.9822L359.905 52.2983L359.431 114.328L318.034 114.012L318.507 51.9822Z" fill="white"/>
<path d="M360.123 23.7248C360.035 35.1565 350.698 44.3529 339.266 44.2656C327.834 44.1783 318.638 34.8404 318.725 23.4088C318.812 11.9771 328.15 2.78071 339.582 2.86799C351.014 2.95527 360.21 12.2932 360.123 23.7248Z" fill="white"/>
</svg>
